<mxfile host="65bd71144e">
    <diagram id="EP91GSvZpo4KbIIw1o7R" name="Page-1">
        <mxGraphModel dx="777" dy="1959" grid="1" gridSize="10" guides="1" tooltips="1" connect="1" arrows="1" fold="1" page="1" pageScale="1" pageWidth="827" pageHeight="1169" math="0" shadow="0">
            <root>
                <mxCell id="0"/>
                <mxCell id="1" parent="0"/>
                <mxCell id="2" value="Spring Security" style="rounded=1;whiteSpace=wrap;html=1;fillColor=#d5e8d4;strokeColor=#82b366;strokeWidth=4;fontColor=#CC0000;fontSize=20;fontStyle=1;fontFamily=Comic Sans MS;verticalAlign=top;" vertex="1" parent="1">
                    <mxGeometry x="20" y="-150" width="700" height="590" as="geometry"/>
                </mxCell>
                <mxCell id="6" value="Authentication" style="rounded=1;whiteSpace=wrap;html=1;fillColor=#dae8fc;strokeColor=#6c8ebf;strokeWidth=4;fontSize=20;fontStyle=1;fontFamily=Comic Sans MS;verticalAlign=top;labelBackgroundColor=none;glass=0;sketch=0;shadow=0;" vertex="1" parent="1">
                    <mxGeometry x="80" y="-80" width="260" height="480" as="geometry"/>
                </mxCell>
                <mxCell id="9" value="Authorization" style="rounded=1;whiteSpace=wrap;html=1;fillColor=#dae8fc;strokeColor=#6c8ebf;strokeWidth=4;fontSize=20;fontStyle=1;fontFamily=Comic Sans MS;verticalAlign=top;" vertex="1" parent="1">
                    <mxGeometry x="390" y="-80" width="270" height="480" as="geometry"/>
                </mxCell>
                <mxCell id="10" value="AccessDecisionManager" style="rounded=1;whiteSpace=wrap;html=1;fillColor=#f8cecc;strokeColor=#b85450;strokeWidth=4;fontSize=20;fontStyle=1;fontFamily=Comic Sans MS;" vertex="1" parent="1">
                    <mxGeometry x="405" y="-30" width="245" height="90" as="geometry"/>
                </mxCell>
                <mxCell id="3" value="AuthenticationManager" style="rounded=1;whiteSpace=wrap;html=1;fillColor=#f8cecc;strokeColor=#b85450;strokeWidth=4;fontSize=20;fontStyle=1;fontFamily=Comic Sans MS;shadow=0;" vertex="1" parent="1">
                    <mxGeometry x="95" y="-20" width="230" height="90" as="geometry"/>
                </mxCell>
                <mxCell id="5" value="Authentication" style="rounded=1;whiteSpace=wrap;html=1;fillColor=#f8cecc;strokeColor=#b85450;strokeWidth=4;fontSize=20;fontStyle=1;fontFamily=Comic Sans MS;" vertex="1" parent="1">
                    <mxGeometry x="95" y="90" width="230" height="90" as="geometry"/>
                </mxCell>
                <mxCell id="4" value="SecurityContextHolder" style="rounded=1;whiteSpace=wrap;html=1;fillColor=#f8cecc;strokeColor=#b85450;strokeWidth=4;fontSize=20;fontStyle=1;fontFamily=Comic Sans MS;" vertex="1" parent="1">
                    <mxGeometry x="92.5" y="210" width="232.5" height="90" as="geometry"/>
                </mxCell>
                <mxCell id="7" value="AccessDecisionVoter" style="rounded=1;whiteSpace=wrap;html=1;fillColor=#f8cecc;strokeColor=#b85450;strokeWidth=4;fontSize=20;fontStyle=1;fontFamily=Comic Sans MS;" vertex="1" parent="1">
                    <mxGeometry x="405" y="90" width="245" height="100" as="geometry"/>
                </mxCell>
                <mxCell id="8" value="ConfigAttribute" style="rounded=1;whiteSpace=wrap;html=1;fillColor=#f8cecc;strokeColor=#b85450;strokeWidth=4;fontSize=20;fontStyle=1;fontFamily=Comic Sans MS;" vertex="1" parent="1">
                    <mxGeometry x="400" y="210" width="250" height="90" as="geometry"/>
                </mxCell>
            </root>
        </mxGraphModel>
    </diagram>
</mxfile>